<svg width="700" height="352" viewBox="0 0 700 352" fill="none" xmlns="http://www.w3.org/2000/svg">
<path d="M663.718 345.596H618.09V2.25586H663.718V345.596Z" fill="white"/>
<path d="M489.707 345.596V2.25586H534.883V159.47L563.796 2.25586H604.455L574.187 160.373L606.714 345.596H563.796L534.883 173.022V345.596H489.707Z" fill="white"/>
<path d="M424.118 0C454.387 0 475.168 17.167 475.168 83.5762V114.296H434.509V85.8351C434.509 50.5975 430.895 37.0446 425.022 37.0446C420.504 37.0446 416.89 46.5316 416.89 60.5363C416.89 141.402 476.071 198.324 476.071 284.159C476.071 318.042 460.259 347.858 425.925 347.858C395.657 347.858 374.876 330.691 374.876 264.282V238.079H415.535V262.023C415.535 297.26 419.149 310.813 425.022 310.813C430.895 310.813 433.154 298.616 433.154 286.418C433.154 212.329 373.973 156.762 373.973 62.7951C373.973 27.1058 394.302 0 424.118 0Z" fill="white"/>
<path d="M255.875 2.25586H293.823C344.872 2.25586 365.654 28.9099 365.654 98.0297C365.654 134.623 357.974 155.855 343.065 169.408L365.654 345.596H322.736L306.021 188.834C304.214 188.834 302.407 188.834 300.6 189.286V345.596H255.875V2.25586ZM320.477 98.0297C320.477 49.691 313.701 42.9146 300.6 42.9146V153.145C314.153 153.145 320.477 145.465 320.477 98.0297Z" fill="white"/>
<path d="M128.344 228.138V2.25586H173.068V205.549C173.068 296.806 176.231 310.81 183.007 310.81C189.784 310.81 192.946 296.806 192.946 205.549V2.25586H237.671V228.138C237.671 324.363 221.859 347.855 183.007 347.855C144.155 347.855 128.344 324.363 128.344 228.138Z" fill="white"/>
<path d="M65.054 345.596V187.479H45.1764V345.596H0V2.25586H45.1764V144.561H65.054V2.25586H110.23V345.596H65.054Z" fill="white"/>
</svg>
